<?xml version="1.0" encoding="UTF-8"?><svg id="Layer_1" xmlns="http://www.w3.org/2000/svg" viewBox="0 0 945.97 239.73"><defs><style>.cls-1{fill:#fff;}</style></defs><path class="cls-1" d="M243.78,119.24c0,11.38-4.51,17-14.18,17s-14.18-5.59-14.18-17V2.15h-26.64V118.15c0,26.64,15.47,41.25,40.82,41.25s40.82-14.61,40.82-41.25V2.15h-26.64V119.24ZM63.31,75.63c12.89-5.16,18.48-19.12,18.48-32.45,0-26.42-12.68-41-41.25-41H1V157.26H43.11c30.3,0,41.68-19.33,41.68-44.9,0-19.98-7.95-30.72-21.48-36.73ZM27.65,24.06h10.09c11.82,0,17.4,7.52,17.4,21.92-.03,12.85-7.73,19.76-17.83,19.76h-9.66V24.06Zm11.17,111.29h-11.17v-47.69h8.59c15.87,0,21.87,7.95,21.87,23.84s-5.11,23.85-19.29,23.85Zm283.78-46.84h34.38v-23.2h-34.38V25.31h44.69V2.15h-71.33V157.26h74.34v-23.2h-47.7v-45.55ZM133.11,2.15h-26.61V157.26h68.53v-23.2h-41.92V2.15ZM809.43,157.26h26.68V2.15h-26.68V157.26ZM746.11,0c-27.93,0-40.82,17.83-40.82,39.75V119.67c0,21.91,12.89,39.74,40.82,39.74,0,0,14.7-.63,26.46-9.52l14,9.52V78.88h-43.3v21.06h19.24v19.8h0c0,17.32-14.77,16.41-14.77,16.41h-1.6c-10.74,0-14.18-5.59-14.18-17.18V40.39c0-11.6,3.44-17.19,14.18-17.19s14.18,5.59,14.18,17.19v12h26.64v-12.64c0-21.92-12.85-39.75-40.85-39.75ZM482.49,0c-27.93,0-40.82,17.83-40.82,39.75V119.67c0,21.91,12.89,39.74,40.82,39.74s40.82-17.83,40.82-39.74V39.75c.03-21.92-12.87-39.75-40.79-39.75h-.03Zm14.18,119c0,11.59-3.44,17.18-14.18,17.18s-14.18-5.59-14.18-17.18V40.39c0-11.6,3.43-17.19,14.18-17.19s14.18,5.59,14.18,17.19V119ZM921.91,2.15V94.01L885.53,2.15h-24.07V157.26h24.07V65.4l36.38,91.86h24.06V2.15h-24.06Zm-268.32,155.11h26.63V2.15h-26.63V157.26Zm-24.18-109.35c0-33.08-15.26-45.76-45.12-45.76h-37.38V157.26h26.64v-63.59c4.49,.03,8.99-.18,13.46-.61l18.89,64.2h27.38l-22.57-70.25c9.03-4.08,18.7-14.18,18.7-39.1Zm-46.41,23.85h-9.45V24.06h9.45c14.4,0,19.77,5.37,19.77,23.85s-5.37,23.85-19.77,23.85h0Z"/><polygon class="cls-1" points="0 239.27 0 207.13 24.83 207.13 24.83 210.49 23.38 211.93 4.8 211.93 4.8 221.77 20.11 221.77 20.11 226.57 4.8 226.57 4.8 239.27 0 239.27"/><path class="cls-1" d="M47.17,239.73c-4.02,0-7.34-3.15-7.54-7.17-.01-.26-.01-.52,0-.78v-17.19c-.1-1.96,.58-3.9,1.94-5.4,1.35-1.5,3.21-2.38,5.22-2.49,.13,0,.26,0,.39,0s.26,0,.39,0h13.09c.08,0,.21,0,.35,0,4.02,0,7.34,3.15,7.54,7.17,.01,.26,.01,.52,0,.78v17.19c.1,1.96-.58,3.9-1.94,5.4-1.35,1.5-3.21,2.38-5.22,2.49-.13,0-.26,0-.39,0s-.26,0-.39,0h-13.09c-.08,0-.21,0-.35,0Zm.56-28.2c-2.26,0-3.31,1.05-3.31,3.3v16.8c0,2.25,1.05,3.3,3.31,3.3l12.7-.03c2.26,0,3.31-1.05,3.31-3.3v-16.77c0-2.25-1.05-3.3-3.31-3.3h-12.7Z"/><path class="cls-1" d="M111.39,239.27l-8.18-11.84h-10.75v11.84h-4.8v-32.14h19.52c.08,0,.21,0,.34,0,4.02,0,7.34,3.15,7.55,7.17,.01,.26,.01,.52,0,.78v4.47c.1,1.96-.58,3.9-1.94,5.4-1.11,1.23-2.55,2.04-4.15,2.35l6.29,9.16v2.81h-3.89Zm-4.43-16.64c2.26,0,3.31-1.05,3.31-3.3v-4.1c0-2.25-1.05-3.3-3.31-3.3h-14.5v10.7h14.5Z"/><polygon class="cls-1" points="164.31 239.27 164.33 211.93 152.7 211.93 152.7 207.13 180.76 207.13 180.76 210.49 179.3 211.93 169.11 211.93 169.11 239.27 164.31 239.27"/><polygon class="cls-1" points="220.31 239.27 220.31 225.27 201.87 225.27 201.87 239.27 197.11 239.27 197.11 207.13 201.91 207.13 201.91 220.48 220.36 220.48 220.36 207.13 225.11 207.13 225.11 239.27 220.31 239.27"/><polygon class="cls-1" points="244.11 239.27 244.11 207.13 269.11 207.13 269.11 210.48 267.66 211.93 248.89 211.93 248.89 220.48 264.61 220.48 264.61 225.28 248.89 225.28 248.89 234.47 269.11 234.47 269.11 239.27 244.11 239.27"/><path class="cls-1" d="M331.5,239.25c-.13,0-.26,0-.39,0h-19.47s0-32.11,0-32.11h19.09c.08,0,.21,0,.34,0,4.02,0,7.34,3.15,7.54,7.17,.01,.26,.01,.52,0,.78v1.67c0,2.9-1.33,4.68-2.7,5.66,1.56,1,3.14,2.92,3.14,6.15v2.8c.21,4.11-3,7.67-7.16,7.89-.13,0-.26,0-.39,0Zm-.56-4.78c2.26,0,3.31-1.05,3.31-3.3v-2.8c0-2.26-1.05-3.31-3.31-3.31h-14.5v9.41h14.5Zm-.43-14.21c2.26,0,3.31-1.05,3.31-3.3v-1.73c0-2.25-1.05-3.3-3.31-3.3h-14.07v8.33h14.07Z"/><polygon class="cls-1" points="357.77 239.27 357.73 207.13 382.73 207.13 382.73 210.48 381.28 211.93 362.53 211.93 362.53 220.48 378.25 220.48 378.25 225.28 362.53 225.28 362.53 234.47 382.77 234.47 382.77 239.27 357.77 239.27"/><polygon class="cls-1" points="424.15 239.27 404.96 215.05 404.96 239.27 400.16 239.27 400.16 207.13 404.64 207.13 423.83 231.36 423.83 207.13 428.63 207.13 428.63 239.27 424.15 239.27"/><polygon class="cls-1" points="448.66 239.27 448.62 207.13 473.62 207.13 473.62 210.49 472.16 211.93 453.41 211.93 453.41 220.48 469.11 220.48 469.11 225.28 453.41 225.28 453.41 234.47 473.66 234.47 473.66 239.27 448.66 239.27"/><polygon class="cls-1" points="491.04 239.27 491.04 207.13 515.87 207.13 515.87 210.48 514.42 211.93 495.84 211.93 495.84 221.77 511.11 221.77 511.11 226.57 495.84 226.57 495.84 239.27 491.04 239.27"/><rect class="cls-1" x="532.39" y="207.13" width="4.8" height="32.14"/><polygon class="cls-1" points="565.11 239.27 565.11 211.93 553.5 211.93 553.5 207.13 581.55 207.13 581.55 210.49 580.1 211.93 569.93 211.93 569.93 239.27 565.11 239.27"/><path class="cls-1" d="M626.94,239.73c-4.02,0-7.34-3.15-7.54-7.17-.01-.26-.01-.52,0-.78v-17.19c-.1-1.96,.58-3.9,1.94-5.4s3.21-2.38,5.22-2.49c.13,0,.26,0,.39,0s.26,0,.39,0h13.09c.08,0,.21,0,.34,0,4.02,0,7.34,3.15,7.54,7.17,.01,.26,.01,.52,0,.78v17.19c.1,1.96-.58,3.9-1.94,5.4s-3.21,2.38-5.22,2.49c-.13,0-.26,0-.39,0s-.26,0-.39,0h-13.09c-.08,0-.21,0-.34,0Zm.57-28.2c-2.26,0-3.31,1.05-3.31,3.3v16.8c0,2.25,1.05,3.3,3.31,3.3l12.7-.03c2.26,0,3.31-1.05,3.31-3.3v-16.77c0-2.25-1.05-3.3-3.31-3.3h-12.7Z"/><polygon class="cls-1" points="666.43 239.27 666.43 207.13 691.25 207.13 691.25 210.48 689.8 211.93 671.23 211.93 671.23 221.77 686.52 221.77 686.52 226.57 671.23 226.57 671.23 239.27 666.43 239.27"/><g><path class="cls-1" d="M721.65,207.11h30.23v5.58l-3.26,3.25h-16.74v3.26h14.42v8.37h-14.42v3.25h20v8.84h-30.23v-32.55Z"/><path class="cls-1" d="M764.67,234.78l11.86-27.67h13.49l11.86,27.67v4.88h-10l-1.63-4.88h-13.95l-1.63,4.88h-10v-4.88Zm22.55-8.37l-3.72-10h-.47l-3.72,10h7.91Z"/><path class="cls-1" d="M814.82,207.11h25.58c4.88,0,7.91,3.02,7.91,7.91v6.04c0,6.04-5.58,6.98-5.58,6.98l6.28,6.74v4.88h-9.3l-8.84-10.7h-5.81v10.7h-10.23v-32.55Zm23.25,13.02v-4.19h-13.02v4.19h13.02Z"/><path class="cls-1" d="M874.1,216.41h-11.86v-9.3h33.95v6.05l-3.26,3.25h-8.6v23.25h-10.23v-23.25Z"/><path class="cls-1" d="M910.6,207.11h10.23v11.63h13.95v-11.63h10.23v32.55h-10.23v-11.63h-13.95v11.63h-10.23v-32.55Z"/></g></svg>